<svg width="150" height="150" viewBox="0 0 150 150" fill="none" xmlns="http://www.w3.org/2000/svg">
<path d="M107.812 103.125H98.4375V93.75H89.0625V103.125H79.6875V93.75H70.3125V103.125H60.9375V93.75H51.5625V103.125H42.1875V112.5H51.5625V121.875H60.9375V112.5H70.3125V121.875H79.6875V112.5H89.0625V121.875H98.4375V112.5H107.812V103.125Z" fill="white"/>
<path d="M131.25 51.5625H126.562V18.75C126.559 16.2647 125.57 13.8823 123.813 12.125C122.055 10.3676 119.673 9.37872 117.188 9.375H32.8125C30.3272 9.37872 27.9448 10.3676 26.1875 12.125C24.4301 13.8823 23.4412 16.2647 23.4375 18.75V51.5625H18.75C16.2647 51.5662 13.8823 52.5551 12.125 54.3125C10.3676 56.0698 9.37872 58.4522 9.375 60.9375V79.6875C9.37872 82.1728 10.3676 84.5552 12.125 86.3125C13.8823 88.0699 16.2647 89.0588 18.75 89.0625H23.4375V107.812C23.4499 116.511 26.9109 124.85 33.0618 131.001C39.2126 137.152 47.5514 140.613 56.25 140.625H93.75C102.449 140.613 110.787 137.152 116.938 131.001C123.089 124.85 126.55 116.511 126.562 107.812V89.0625H131.25C133.735 89.0588 136.118 88.0699 137.875 86.3125C139.632 84.5552 140.621 82.1728 140.625 79.6875V60.9375C140.621 58.4522 139.632 56.0698 137.875 54.3125C136.118 52.5551 133.735 51.5662 131.25 51.5625ZM117.188 18.75V34.6031L105.22 28.6219C104.57 28.2968 103.852 28.1275 103.125 28.1275C102.398 28.1275 101.68 28.2968 101.03 28.6219L84.375 36.9469L67.7203 28.6219C67.0697 28.2968 66.3523 28.1275 65.625 28.1275C64.8977 28.1275 64.1803 28.2968 63.5297 28.6219L46.875 36.9469L32.8125 29.9156V18.75H117.188ZM131.25 79.6875H117.188V107.812C117.18 114.026 114.708 119.983 110.315 124.377C105.921 128.771 99.9637 131.243 93.75 131.25H56.25C50.0363 131.243 44.0792 128.771 39.6854 124.377C35.2916 119.983 32.8199 114.026 32.8125 107.812V79.6875H18.75V60.9375H32.8125V40.3969L44.7797 46.3828C45.4303 46.7079 46.1477 46.8772 46.875 46.8772C47.6023 46.8772 48.3197 46.7079 48.9703 46.3828L65.625 38.0531L82.2797 46.3781C82.9303 46.7032 83.6477 46.8725 84.375 46.8725C85.1023 46.8725 85.8197 46.7032 86.4703 46.3781L103.125 38.0578L117.188 45.0891V60.9375H131.25V79.6875Z" fill="white"/>
<path d="M42.1875 65.625H65.625V75H42.1875V65.625ZM84.375 65.625H107.812V75H84.375V65.625Z" fill="white"/>
</svg>
